<svg width="42" height="42" viewBox="0 0 42 42" fill="none" xmlns="http://www.w3.org/2000/svg">
<path d="M36.1989 4.55273H6.73982C6.03136 4.55273 5.45898 5.12511 5.45898 5.83357V35.2927C5.45898 36.0011 6.03136 36.5735 6.73982 36.5735H36.1989C36.9074 36.5735 37.4798 36.0011 37.4798 35.2927V5.83357C37.4798 5.12511 36.9074 4.55273 36.1989 4.55273ZM14.9571 31.8384H10.2061V16.5565H14.9571V31.8384ZM12.5836 14.4672C12.039 14.4672 11.5065 14.3057 11.0537 14.0031C10.6008 13.7005 10.2479 13.2704 10.0394 12.7672C9.83101 12.264 9.77648 11.7103 9.88273 11.1761C9.98899 10.642 10.2513 10.1513 10.6364 9.76616C11.0215 9.38104 11.5122 9.11876 12.0464 9.01251C12.5806 8.90625 13.1342 8.96079 13.6374 9.16921C14.1406 9.37764 14.5707 9.7306 14.8733 10.1835C15.1759 10.6363 15.3374 11.1687 15.3374 11.7134C15.3334 13.2344 14.1006 14.4672 12.5836 14.4672ZM32.7447 31.8384H27.9976V24.4056C27.9976 22.6325 27.9656 20.355 25.528 20.355C23.0584 20.355 22.6782 22.2842 22.6782 24.2775V31.8384H17.9351V16.5565H22.49V18.6459H22.5541C23.1865 17.4451 24.7355 16.1763 27.049 16.1763C31.8601 16.1763 32.7447 19.3423 32.7447 23.457V31.8384Z" fill="white"/>
</svg>
