<svg width="41" height="42" viewBox="0 0 41 42" fill="none" xmlns="http://www.w3.org/2000/svg">
<path d="M37.1445 10.2493C35.9197 10.7776 34.5868 11.1578 33.2139 11.3059C34.6393 10.4591 35.7067 9.12132 36.2159 7.5435C34.8783 8.33918 33.4131 8.89712 31.8851 9.19257C31.2464 8.50984 30.474 7.96594 29.616 7.59477C28.758 7.2236 27.8327 7.03311 26.8978 7.03517C23.1154 7.03517 20.0734 10.1012 20.0734 13.8636C20.0734 14.3919 20.1374 14.9203 20.2415 15.4286C14.5778 15.1324 9.52656 12.4267 6.16838 8.28398C5.55648 9.32912 5.23583 10.5191 5.23978 11.7302C5.23978 14.0998 6.44456 16.1891 8.28175 17.4179C7.19906 17.3753 6.14173 17.0777 5.19575 16.5493V16.6334C5.19575 19.9516 7.54127 22.7013 10.6673 23.3337C10.0804 23.4862 9.47655 23.5642 8.87013 23.5659C8.42584 23.5659 8.00557 23.5219 7.5813 23.4618C8.44586 26.1676 10.9635 28.1329 13.9614 28.1969C11.6159 30.0341 8.67801 31.1148 5.48794 31.1148C4.91557 31.1148 4.38722 31.0948 3.83887 31.0307C6.86483 32.972 10.4552 34.0927 14.3217 34.0927C26.8738 34.0927 33.7423 23.694 33.7423 14.6681C33.7423 14.3719 33.7423 14.0757 33.7223 13.7795C35.0511 12.8069 36.2159 11.6021 37.1445 10.2493Z" fill="white"/>
</svg>
