<svg width="42" height="42" viewBox="0 0 42 42" fill="none" xmlns="http://www.w3.org/2000/svg">
<path d="M36.2097 4.55273H6.75056C6.0421 4.55273 5.46973 5.12511 5.46973 5.83357V35.2927C5.46973 36.0011 6.0421 36.5735 6.75056 36.5735H36.2097C36.9181 36.5735 37.4905 36.0011 37.4905 35.2927V5.83357C37.4905 5.12511 36.9181 4.55273 36.2097 4.55273ZM32.5113 13.8988H29.9536C27.9483 13.8988 27.5601 14.8514 27.5601 16.2523V19.3383H32.3472L31.7228 24.1695H27.5601V36.5735H22.5688V24.1735H18.3941V19.3383H22.5688V15.776C22.5688 11.6413 25.0945 9.38787 28.7849 9.38787C30.554 9.38787 32.071 9.51996 32.5153 9.58V13.8988H32.5113Z" fill="white"/>
</svg>
