<svg width="46" height="47" viewBox="0 0 46 47" fill="none" xmlns="http://www.w3.org/2000/svg">
<path d="M22.9997 26.9036C27.2278 26.9036 30.6663 23.4651 30.6663 19.237C30.6663 15.0088 27.2278 11.5703 22.9997 11.5703C18.7715 11.5703 15.333 15.0088 15.333 19.237C15.333 23.4651 18.7715 26.9036 22.9997 26.9036ZM22.9997 15.4036C25.1138 15.4036 26.833 17.1229 26.833 19.237C26.833 21.3511 25.1138 23.0703 22.9997 23.0703C20.8856 23.0703 19.1663 21.3511 19.1663 19.237C19.1663 17.1229 20.8856 15.4036 22.9997 15.4036Z" fill="black"/>
<path d="M21.8888 41.8802C22.2132 42.1118 22.6019 42.2363 23.0005 42.2363C23.3991 42.2363 23.7878 42.1118 24.1122 41.8802C24.6948 41.4681 38.3894 31.58 38.3338 19.2367C38.3338 10.7822 31.4549 3.90332 23.0005 3.90332C14.5461 3.90332 7.66716 10.7822 7.66716 19.2271C7.61158 31.58 21.3062 41.4681 21.8888 41.8802ZM23.0005 7.73665C29.3427 7.73665 34.5005 12.8944 34.5005 19.2462C34.5407 27.7524 26.0902 35.3903 23.0005 37.8954C19.9127 35.3884 11.4602 27.7486 11.5005 19.2367C11.5005 12.8944 16.6582 7.73665 23.0005 7.73665Z" fill="white"/>
</svg>
