<svg width="151" height="61" viewBox="0 0 151 61" fill="none" xmlns="http://www.w3.org/2000/svg">
<g clip-path="url(#clip0_1_21348)">
<path d="M0.628906 0.796875V4.89795H29.7977V0.796875H0.628906ZM33.9304 0.796875V4.89795H75.4972C75.4972 4.89795 71.2512 0.796875 65.6279 0.796875H33.9304ZM83.6513 0.796875V4.89795H108.799L107.306 0.796875H83.6513ZM126.828 0.796875L125.335 4.89795H150.254V0.796875H126.828ZM0.628906 8.77248V12.8736H29.7977V8.77248H0.628906ZM33.9304 8.77834V12.8736H80.3206C80.3206 12.8736 79.7789 9.71727 78.8338 8.77834H33.9304ZM83.6513 8.77834V12.8736H111.556L110.174 8.77834H83.6513ZM123.843 8.77834L122.461 12.8736H150.254V8.77834H123.843ZM9.01134 16.7481V20.8544H21.6435V16.7481H9.01134ZM42.3128 16.7481V20.8544H54.945V16.7481H42.3128ZM67.2318 16.7481V20.8544H79.864C79.864 20.8544 80.666 18.6857 80.666 16.7478H67.2318V16.7481ZM92.0338 16.7481V20.8544H114.43L112.937 16.7478H92.0338V16.7481ZM121.091 16.7481L119.593 20.8547H142.1V16.7481H121.091ZM9.01134 24.7296V28.83H21.6435V24.7296H9.01134ZM42.3128 24.7296V28.83H74.5782C74.5782 28.83 77.2773 26.7257 78.1372 24.729H42.3128V24.7296ZM92.0338 24.7296V28.83H104.666V26.5471L105.468 28.83H128.607L129.468 26.5471V28.83H142.1V24.7296H118.387L117.128 28.2034L115.864 24.7296H92.0338ZM9.01134 32.7046V36.8057H21.6435V32.7046H9.01134ZM42.3128 32.7046V36.8057H78.1372C77.277 34.8154 74.5782 32.7046 74.5782 32.7046H42.3128ZM92.0338 32.7046V36.8057H104.666V32.7046H92.0338ZM106.961 32.7046L108.488 36.8057H125.839L127.29 32.7046H106.961ZM129.468 32.7046V36.8057H142.1V32.7046H129.468ZM9.01134 40.6802V44.7813H21.6435V40.6802H9.01134ZM42.3128 40.6802V44.7813H54.945V40.6802H42.3128ZM67.2318 40.6802V44.7813H80.666C80.666 42.8458 79.864 40.6802 79.864 40.6802H67.2318ZM92.0338 40.6802V44.7813H104.666V40.6802H92.0338ZM109.829 40.6802L111.31 44.7813H122.941L124.434 40.6802H109.829ZM129.468 40.6802V44.7813H142.1V40.6802H129.468ZM0.857199 48.6561V52.7627H30.026V48.6558H0.857199V48.6561ZM33.9304 48.6561V52.7627H78.8338C79.7789 51.8223 80.3206 48.6558 80.3206 48.6558H33.9304V48.6561ZM83.8796 48.6561V52.7627H104.666V48.6558H83.8796V48.6561ZM112.703 48.6561L114.225 52.7627H120.143L121.571 48.6558H112.703V48.6561ZM129.468 48.6561V52.7627H150.483V48.6558H129.468V48.6561ZM0.857199 56.6373V60.7383H30.026V56.6373H0.857199ZM33.9304 56.6373V60.7322H65.6279C71.2512 60.7322 75.4972 56.637 75.4972 56.637H33.9304V56.6373ZM83.8796 56.6373V60.7383H104.666V56.6373H83.8796ZM115.589 56.6373L117.052 60.7263L117.304 60.7322L118.791 56.637H115.589V56.6373ZM129.468 56.6373V60.7383H150.483V56.6373H129.468Z" fill="#1F70C1"/>
</g>
<defs>
<clipPath id="clip0_1_21348">
<rect width="149.854" height="60" fill="white" transform="translate(0.628906 0.796875)"/>
</clipPath>
</defs>
</svg>
