<svg width="61" height="72" viewBox="0 0 61 72" fill="none" xmlns="http://www.w3.org/2000/svg">
<g clip-path="url(#clip0_1_21336)">
<path d="M18.889 0.724704C18.5456 0.726916 18.2081 0.814634 17.907 0.979939C16.9184 1.52791 16.5558 2.79799 17.1036 3.78588L19.3355 7.81619C13.958 11.1431 10.3948 16.8263 10.3948 23.3126V24.5178C9.36191 23.3295 7.84387 22.5792 6.1477 22.5792C3.03988 22.5792 0.516602 25.1025 0.516602 28.2101V45.556C0.516602 48.6633 3.04012 51.1868 6.1477 51.1868C7.84387 51.1868 9.36191 50.4364 10.3946 49.2481V51.6778C10.3946 54.9537 13.0751 57.634 16.351 57.634H17.8622V65.3503C17.8622 68.4581 20.3857 70.9814 23.4933 70.9814C26.6009 70.9814 29.1242 68.4579 29.1242 65.3503V57.634H31.7389V65.3503C31.7389 68.4581 34.2624 70.9814 37.37 70.9814C40.4775 70.9814 43.0008 68.4579 43.0008 65.3503V57.634H44.5123C47.7879 57.634 50.4685 54.9537 50.4685 51.6778V49.2481C51.5011 50.4364 53.0194 51.1868 54.7156 51.1868C57.8232 51.1868 60.3464 48.6633 60.3464 45.556V28.2101C60.3464 25.1025 57.8232 22.5792 54.7156 22.5792C53.0194 22.5792 51.5011 23.3295 50.4685 24.5178V23.5165V23.4591C50.4689 23.3981 50.4685 23.3494 50.4685 23.3126C50.4685 16.8274 46.8971 11.1499 41.5214 7.82275L43.7597 3.78588C44.3072 2.79799 43.9449 1.52791 42.9563 0.979939C42.6552 0.814634 42.3177 0.726916 41.9743 0.724704C41.2442 0.717673 40.5277 1.10252 40.1504 1.78338L37.8099 6.0115C35.5214 5.16705 33.0314 4.70416 30.4318 4.70416C27.8344 4.70416 25.3397 5.16213 23.0532 6.00494L20.7129 1.78338C20.3354 1.10252 19.6191 0.718142 18.889 0.724704Z" fill="white"/>
<path d="M6.14754 24.0459C3.82863 24.0459 1.9834 25.8911 1.9834 28.21V45.5559C1.9834 47.8748 3.82863 49.72 6.14754 49.72C8.46645 49.72 10.3119 47.8748 10.3119 45.5559V28.21C10.3119 25.8911 8.46645 24.0459 6.14754 24.0459ZM54.7157 24.0459C52.3965 24.0459 50.5513 25.8911 50.5513 28.21V45.5559C50.5513 47.8748 52.3965 49.72 54.7157 49.72C57.0346 49.72 58.8798 47.8748 58.8798 45.5559V28.21C58.8798 25.8911 57.0346 24.0459 54.7157 24.0459Z" fill="#A4C639"/>
<path d="M23.4935 43.8398C21.1746 43.8398 19.3291 45.6851 19.3291 48.0042V65.3498C19.3291 67.6688 21.1746 69.514 23.4935 69.514C25.8124 69.514 27.6576 67.6688 27.6576 65.3498V48.0042C27.6576 45.6851 25.8124 43.8398 23.4935 43.8398ZM37.3701 43.8398C35.051 43.8398 33.2057 45.6851 33.2057 48.0042V65.3498C33.2057 67.6688 35.051 69.514 37.3701 69.514C39.689 69.514 41.5343 67.6688 41.5343 65.3498V48.0042C41.5343 45.6851 39.689 43.8398 37.3701 43.8398Z" fill="#A4C639"/>
<path d="M18.9015 2.19149C18.803 2.19267 18.7064 2.21897 18.6209 2.26789C18.324 2.43243 18.2265 2.77368 18.3913 3.07133L21.3249 8.37078C15.6812 11.3075 11.8688 16.8882 11.8613 23.2932H49.0016C48.9938 16.8882 45.1817 11.3073 39.538 8.37078L42.4714 3.07157C42.6364 2.77391 42.5387 2.43243 42.2417 2.26789C42.1562 2.21894 42.0597 2.19264 41.9612 2.19149C41.7502 2.18914 41.5508 2.29461 41.4383 2.49758L38.4664 7.85422C36.0355 6.7761 33.3088 6.17071 30.4313 6.17071C27.5539 6.17071 24.8274 6.77586 22.3963 7.85422L19.4244 2.49758C19.3737 2.40355 19.2981 2.32527 19.206 2.27128C19.1138 2.2173 19.0085 2.1897 18.9017 2.19149H18.9015ZM11.8613 24.7599V51.6779C11.8601 52.2678 11.9753 52.8521 12.2005 53.3974C12.4257 53.9426 12.7563 54.438 13.1735 54.8552C13.5906 55.2723 14.086 55.6029 14.6313 55.828C15.1765 56.0532 15.7609 56.1684 16.3508 56.1671H44.5121C45.102 56.1684 45.6864 56.0532 46.2317 55.828C46.777 55.6028 47.2724 55.2722 47.6895 54.8551C48.1067 54.4379 48.4373 53.9425 48.6625 53.3972C48.8876 52.852 49.0029 52.2676 49.0016 51.6777V24.7602H11.8613V24.7599Z" fill="#A4C639"/>
<path d="M21.8602 13.3965C21.0125 13.3965 20.3105 14.0982 20.3105 14.9459C20.3105 15.7939 21.0125 16.4956 21.8602 16.4956C22.7082 16.4956 23.4099 15.7939 23.4099 14.9459C23.4099 14.0982 22.7082 13.3965 21.8602 13.3965ZM39.0019 13.3965C38.154 13.3965 37.4523 14.0982 37.4523 14.9459C37.4523 15.7939 38.154 16.4956 39.0019 16.4956C39.8497 16.4956 40.5516 15.7939 40.5516 14.9459C40.5516 14.0982 39.8497 13.3965 39.0019 13.3965Z" fill="white"/>
</g>
<defs>
<clipPath id="clip0_1_21336">
<rect width="60" height="70.5469" fill="white" transform="translate(0.516602 0.523438)"/>
</clipPath>
</defs>
</svg>
