<svg width="61" height="61" viewBox="0 0 61 61" fill="none" xmlns="http://www.w3.org/2000/svg">
<g clip-path="url(#clip0_1_21323)">
<path d="M13.6566 0.796875H47.3766C54.6338 0.796875 60.5166 6.67969 60.5166 13.9369V47.6569C60.5166 54.9141 54.6338 60.7969 47.3766 60.7969H13.6566C6.39941 60.7969 0.516602 54.9141 0.516602 47.6569V13.9369C0.516602 6.67969 6.39941 0.796875 13.6566 0.796875Z" fill="url(#paint0_linear_1_21323)"/>
<path d="M19.7449 44.3459L19.7506 44.3477L17.6991 47.9009C16.9502 49.1979 15.2918 49.6423 13.9948 48.8934C12.698 48.1446 12.2534 46.4862 13.0022 45.1891L14.5134 42.5716L14.6585 42.3204C14.9175 41.9482 15.5566 41.3055 16.8352 41.4265C16.8352 41.4265 19.8438 41.753 20.0616 43.3167C20.0616 43.3167 20.0911 43.8312 19.7449 44.3459ZM48.841 35.2709H42.4439C42.0082 35.2416 41.8181 35.0859 41.7431 34.9955L41.7384 34.9873L34.8907 23.1265L34.8818 23.1323L34.4712 22.5436C33.7981 21.5142 32.7293 24.1467 32.7293 24.1467C31.4531 27.0802 32.9105 30.4151 33.4184 31.4231L42.9298 47.8973C43.6784 49.1941 45.3368 49.6387 46.6341 48.8897C47.9309 48.1409 48.3755 46.4824 47.6264 45.1854L45.2482 41.066C45.202 40.9662 45.1219 40.6952 45.6096 40.6941H48.841C50.3386 40.6941 51.5527 39.48 51.5527 37.9823C51.5527 36.4847 50.3386 35.2706 48.841 35.2706V35.2709ZM36.4158 38.9571C36.4158 38.9571 36.7573 40.6941 35.4361 40.6941H11.7879C10.2902 40.6941 9.07617 39.48 9.07617 37.9823C9.07617 36.4847 10.2902 35.2706 11.7879 35.2706H17.8676C18.8491 35.2139 19.0816 34.6472 19.0816 34.6472L19.0873 34.65L27.0232 20.9044L27.0209 20.9039C27.1655 20.6384 27.045 20.3873 27.0241 20.3477L24.4031 15.8081C23.6543 14.5113 24.0987 12.8526 25.3957 12.1041C26.6927 11.3552 28.3512 11.7994 29.1 13.0964L30.3155 15.2018L31.5288 13.1001C32.2777 11.8034 33.9361 11.3587 35.2331 12.1078C36.5302 12.8566 36.9745 14.5148 36.2257 15.8119L25.1824 34.9392C25.1341 35.0557 25.1194 35.2385 25.4787 35.2706H32.0796L32.081 35.3351C32.081 35.3351 35.8962 35.3944 36.4158 38.9571Z" fill="white"/>
</g>
<defs>
<linearGradient id="paint0_linear_1_21323" x1="30.5166" y1="0.796875" x2="30.5166" y2="60.7969" gradientUnits="userSpaceOnUse">
<stop stop-color="#17C9FB"/>
<stop offset="1" stop-color="#1A74E8"/>
</linearGradient>
<clipPath id="clip0_1_21323">
<rect width="60" height="60" fill="white" transform="translate(0.516602 0.796875)"/>
</clipPath>
</defs>
</svg>
