<svg width="61" height="66" viewBox="0 0 61 66" fill="none" xmlns="http://www.w3.org/2000/svg">
<g clip-path="url(#clip0_1_21346)">
<path d="M56.4196 52.7476C55.9672 56.1095 53.7048 59.0185 50.5375 60.3113C48.9859 60.957 47.3054 61.1516 45.6245 60.957C44.0087 60.7634 42.3925 60.2462 40.712 59.2775C38.3846 57.9833 36.0575 55.9803 33.3428 53.0066C37.6093 47.7706 40.1943 42.987 41.1643 38.7214C41.6169 36.7173 41.6814 34.9072 41.4878 33.2262C41.2295 31.6105 40.6475 30.1231 39.7421 28.8305C37.7382 25.922 34.3773 24.241 30.628 24.241C26.8787 24.241 23.5175 25.9866 21.5136 28.8305C20.6082 30.1234 20.0272 31.6105 19.7682 33.2262C19.51 34.9072 19.5744 36.7817 20.0917 38.7216C21.0611 42.9868 23.7111 47.8353 27.9132 53.0703C25.2629 56.0448 22.8711 58.0484 20.5438 59.3415C18.8633 60.3113 17.2471 60.8286 15.6313 61.0217C13.9656 61.2078 12.2796 60.9862 10.7186 60.376C7.55097 59.0832 5.28902 56.1732 4.83621 52.812C4.64261 51.1965 4.77175 49.5807 5.41816 47.7706C5.61175 47.1237 5.93543 46.4785 6.25816 45.7023C6.71097 44.6684 7.22824 43.5687 7.7448 42.4695L7.80996 42.3411C12.2696 32.709 17.0535 22.8837 22.0309 13.3173L22.2247 12.9287C22.742 11.96 23.2586 10.9262 23.7763 9.95609C24.2931 8.92156 24.8748 7.95172 25.5857 7.11078C26.9432 5.55922 28.7532 4.71898 30.7571 4.71898C32.761 4.71898 34.5709 5.55922 35.9284 7.11102C36.6395 7.95172 37.2212 8.92156 37.7385 9.95633C38.2557 10.9262 38.7723 11.96 39.2896 12.9287L39.4841 13.3173C44.3964 22.9482 49.1802 32.7734 53.6403 42.4055V42.4695C54.1576 43.5041 54.6097 44.6684 55.127 45.7023C55.4504 46.4785 55.7734 47.1235 55.967 47.7706C56.4842 49.4511 56.6781 51.0678 56.4198 52.7476H56.4196ZM30.628 49.7091C27.1377 45.3141 24.8748 41.1767 24.0993 37.6871C23.7765 36.2 23.7111 34.9072 23.9057 33.7435C24.0346 32.709 24.4229 31.8036 24.9393 31.0273C26.1676 29.2836 28.236 28.1827 30.628 28.1827C33.0198 28.1827 35.1528 29.218 36.3163 31.0273C36.8331 31.8036 37.2212 32.709 37.3503 33.7435C37.5442 34.9072 37.4795 36.2645 37.1565 37.6871C36.381 41.1127 34.1183 45.2497 30.628 49.7091ZM59.781 46.3482C59.458 45.5724 59.1346 44.7324 58.8116 44.0213C58.2943 42.8584 57.7771 41.7587 57.3245 40.7241L57.2598 40.6602C52.8001 30.9634 48.0163 21.1381 42.9742 11.4434L42.7806 11.0544C42.2633 10.0848 41.746 9.05023 41.2295 8.01617C40.5826 6.85203 39.936 5.62508 38.9021 4.4607C36.8328 1.87508 33.86 0.453125 30.6922 0.453125C27.4602 0.453125 24.5516 1.87508 22.4181 4.33203C21.4489 5.49523 20.7378 6.72336 20.0914 7.88773C19.5742 8.92156 19.0569 9.95609 18.5399 10.9262L18.3461 11.3129C13.3691 21.009 8.52082 30.8349 4.06043 40.531L3.99597 40.6602C3.54316 41.694 3.02589 42.7925 2.50863 43.9569C2.16282 44.723 1.83963 45.4991 1.53949 46.2842C0.698786 48.6753 0.440504 50.9382 0.763473 53.2648C1.47504 58.1131 4.70707 62.1861 9.16722 63.9955C10.8475 64.707 12.5928 65.03 14.4032 65.03C14.9202 65.03 15.5666 64.9653 16.0839 64.9002C18.2167 64.6412 20.4144 63.9315 22.5472 62.7027C25.198 61.216 27.7192 59.0832 30.5631 55.9803C33.407 59.0832 35.9928 61.2162 38.5785 62.7027C40.712 63.9315 42.9095 64.6412 45.0425 64.9002C45.5598 64.9653 46.2062 65.03 46.7232 65.03C48.5333 65.03 50.3429 64.707 51.9592 63.9955C56.484 62.1861 59.6514 58.0487 60.3625 53.2648C60.8797 51.0019 60.6207 48.7407 59.7807 46.348L59.781 46.3482Z" fill="#E0565B"/>
</g>
<defs>
<clipPath id="clip0_1_21346">
<rect width="60" height="64.6875" fill="white" transform="translate(0.628906 0.453125)"/>
</clipPath>
</defs>
</svg>
