<svg width="73" height="61" viewBox="0 0 73 61" fill="none" xmlns="http://www.w3.org/2000/svg">
<g clip-path="url(#clip0_1_21342)">
<path d="M36.6578 0.796875C17.3226 0.796875 2.17445 25.3969 0.741211 46.1743C6.80882 56.7048 21.4406 60.6631 36.6584 60.6631C51.875 60.6631 66.5077 56.7048 72.5722 46.1741C71.1387 25.3969 55.9925 0.796875 36.6581 0.796875" fill="#B6DEFF"/>
<path d="M67.5198 41.2251C67.5198 41.2251 63.2493 31.9924 58.9088 26.6059C54.5651 21.2172 49.2606 15.3496 46.1243 15.3496C42.9896 15.3496 34.2268 30.8645 30.2068 30.8645C26.186 30.8645 24.0964 23.8313 19.153 23.8313C14.2077 23.8313 6.35075 40.7916 6.35075 40.7916L5.81836 43.6668C5.81836 43.6668 8.54794 55.7685 37.104 55.7685C65.6612 55.7685 67.9434 43.8654 67.9434 43.8654L67.52 41.2248" fill="#66CC66"/>
<path d="M30.6541 37.486C26.2191 37.486 23.9456 33.1102 22.7129 30.409C21.6045 27.9758 21.4126 24.1341 18.2676 24.0265C18.5766 23.904 18.8741 23.8316 19.1529 23.8316C24.0963 23.8316 26.1859 30.8648 30.2067 30.8648C34.2267 30.8648 42.9895 15.3496 46.1242 15.3496C46.7149 15.3496 47.3802 15.5581 48.1022 15.9288C47.5681 15.8583 46.8833 15.9074 46.3557 16.4367C45.3425 17.4502 36.1445 37.486 30.6541 37.486Z" fill="#17AD49"/>
</g>
<defs>
<clipPath id="clip0_1_21342">
<rect width="72.1127" height="60" fill="white" transform="translate(0.516602 0.796875)"/>
</clipPath>
</defs>
</svg>
